<svg xmlns="http://www.w3.org/2000/svg" data-name="Layer 1" viewBox="0 0 68 68"><ellipse cx="19.36" cy="23.67" fill="#e8c59e" rx="2.33" ry="3.93"/><ellipse cx="48.22" cy="23.67" fill="#e8c59e" rx="2.33" ry="3.93"/><path fill="#f2f2f2" d="M41.58,43.18a42.75,42.75,0,0,1,10.17,2,12.75,12.75,0,0,1,8.57,12V66H7.68V57.23a12.75,12.75,0,0,1,8.57-12,42.75,42.75,0,0,1,10.17-2"/><polygon fill="#dbb997" points="28.14 36.87 34.02 39.24 39.9 36.87 40.95 40.72 34.02 45.52 27.09 40.72 28.14 36.87"/><path fill="#e8c59e" d="M48.66,21.19c0,6.64-3.23,14.08-8,18a10.79,10.79,0,0,1-6.88,2.72A10.8,10.8,0,0,1,27,39.22c-4.79-3.87-8.06-11.35-8.06-18,0-.5,0-1,0-1.47a20.48,20.48,0,0,1,17.81-5.91c5.13.68,8.26.38,10.17-.2A16.58,16.58,0,0,1,48.66,21.19Z"/><polygon fill="#333" points="35.19 49.82 32.81 49.82 29.78 45.52 38.22 45.52 35.19 49.82"/><polygon fill="#4d4d4d" points="32.81 49.82 35.19 49.82 36.69 63.66 34 66 31.31 63.66 32.81 49.82"/><polygon fill="#e6e6e6" points="27.09 40.72 27.47 40.98 34.02 45.52 29.66 50.89 25.3 43.29 27.09 40.72"/><polygon fill="#e6e6e6" points="40.95 40.72 40.57 40.98 34.02 45.52 38.38 50.89 42.73 43.29 40.95 40.72"/><path fill="#2f3233" d="M18.63,25.17H19.7c-.34-2.87-.34-3.8.61-5.43,0,0,8.5,1.18,14.11.41A55.82,55.82,0,0,0,46.19,17c.9,1.83,1,4.31.83,8.15l1.73.34A50.86,50.86,0,0,0,49,12.77c-.44-2.44-.75-6.95-8.89-10a10.93,10.93,0,0,0-1.86-.52C30.74,1,16.21,4.32,16.57,16.84h0A12.22,12.22,0,0,0,18.63,25.17Z"/></svg>